<svg xmlns="http://www.w3.org/2000/svg" viewBox="0 0 28 20" role="img" aria-label="Chinese">
  <rect width="28" height="20" fill="#de2910"/>
  <polygon points="6,2.2 6.8,4.6 9.4,4.6 7.3,6.1 8.1,8.5 6,7 3.9,8.5 4.7,6.1 2.6,4.6 5.2,4.6" fill="#ffde00"/>
  <polygon points="10.6,2.2 11,3.2 12.1,3.3 11.2,4 11.5,5.1 10.6,4.5 9.7,5.1 10,4 9.1,3.3 10.2,3.2" fill="#ffde00"/>
  <polygon points="12.7,4.8 13.1,5.8 14.2,5.9 13.3,6.6 13.6,7.7 12.7,7.1 11.8,7.7 12.1,6.6 11.2,5.9 12.3,5.8" fill="#ffde00"/>
  <polygon points="12.4,8.1 12.8,9.1 13.9,9.2 13,9.9 13.3,11 12.4,10.4 11.5,11 11.8,9.9 10.9,9.2 12,9.1" fill="#ffde00"/>
  <polygon points="10,10.7 10.4,11.7 11.5,11.8 10.6,12.5 10.9,13.6 10,13 9.1,13.6 9.4,12.5 8.5,11.8 9.6,11.7" fill="#ffde00"/>
</svg>
